control3min_grf.mot
version=1
nRows=12
nColumns 19
inDegrees=yes
endheader
time	1_ground_force_vx	1_ground_force_vy	1_ground_force_vz	1_ground_force_px	1_ground_force_py	1_ground_force_pz	1_ground_torque_x	1_ground_torque_y	1_ground_torque_z	2_ground_force_vx	2_ground_force_vy	2_ground_force_vz	2_ground_force_px	2_ground_force_py	2_ground_force_pz	2_ground_torque_x	2_ground_torque_y	2_ground_torque_z
            3.751500	            0.184262	            1.980795	            0.512463	           -0.233013	            0.005581	           -0.255695	            0.240255	           -0.379072	            0.061921	            0.141509	           -0.364777	           -0.846080	           -0.232311	            0.006130	           -0.833667	           -0.263386	            0.093981	           -0.112652
            3.752000	            0.000483	            2.341881	            0.376896	           -0.233013	            0.005581	           -0.255695	            0.301954	           -0.129255	           -0.020185	            0.140138	            0.003855	           -0.938622	           -0.232311	            0.006130	           -0.833667	           -0.262770	           -0.085352	           -0.188694
            3.752500	            0.275298	            1.801727	            0.236327	           -0.233013	            0.005581	           -0.255695	            0.327139	            0.212474	            0.086955	            0.467588	            0.187848	           -0.562679	           -0.232311	            0.006130	           -0.833667	           -0.187586	           -0.103784	           -0.245344
            3.753000	           -0.000197	            1.081594	            0.004638	           -0.233013	            0.005581	           -0.255695	            0.337518	            0.313696	            0.150853	            0.697870	            1.293417	           -0.511909	           -0.232311	            0.006130	           -0.833667	           -0.300067	           -0.170293	           -0.264382
            3.753500	            0.413153	            1.260563	            0.325378	           -0.233013	            0.005581	           -0.255695	            0.210649	            0.120648	           -0.038852	            0.558691	            0.924278	           -0.419307	           -0.232311	            0.006130	           -0.833667	           -0.281275	           -0.161108	           -0.170105
            3.754000	            0.366756	            1.802138	            0.144387	           -0.233013	            0.005581	           -0.255695	            0.293595	           -0.221934	            0.089086	            0.465052	            0.923437	           -0.278483	           -0.232311	            0.006130	           -0.833667	           -0.394243	           -0.086028	           -0.132087
            3.754500	            0.641844	            2.883392	            0.240054	           -0.233013	            0.005581	           -0.255695	            0.270060	           -0.480220	            0.005736	            0.374511	            0.003696	           -0.657153	           -0.232311	            0.006130	           -0.833667	           -0.263119	            0.000059	           -0.282641
            3.755000	            0.687576	            1.622131	            0.096962	           -0.233013	            0.005581	           -0.255695	            0.295345	           -0.322820	           -0.048047	           -0.096605	            0.738263	           -0.560469	           -0.232311	            0.006130	           -0.833667	           -0.244498	            0.065691	           -0.112761
            3.755500	            0.276128	            1.620085	            0.556545	           -0.233013	            0.005581	           -0.255695	            0.369925	           -0.009348	            0.085905	            0.185803	            0.371149	           -0.608831	           -0.232311	            0.006130	           -0.833667	           -0.244206	           -0.028433	           -0.226200
            3.756000	            0.275786	            1.620675	            0.418977	           -0.233013	            0.005581	           -0.255695	            0.262819	            0.314629	           -0.025229	            0.233962	            0.003189	           -0.657093	           -0.232311	            0.006130	           -0.833667	           -0.281206	           -0.180014	           -0.170173
            3.756500	            0.183858	            1.080450	            0.279318	           -0.233013	            0.005581	           -0.255695	            0.287805	            0.259126	           -0.029419	            0.418059	            0.924440	           -0.606959	           -0.232311	            0.006130	           -0.833667	           -0.224749	           -0.198984	           -0.094863
            3.757000	            0.412827	            1.801753	            0.235985	           -0.233013	            0.005581	           -0.255695	            0.252056	            0.009248	            0.073337	            0.654905	            0.189194	           -0.750472	           -0.232311	            0.006130	           -0.833667	           -0.243619	           -0.180012	           -0.132488
